<?xml version="1.0" encoding="UTF-8" standalone="no"?>
<svg
   viewBox="0 0 12 17"
   version="1.1"
   id="svg1"
   sodipodi:docname="cactus.svg"
   inkscape:export-filename="cactus.png"
   inkscape:export-xdpi="256"
   inkscape:export-ydpi="256"
   inkscape:version="1.3.2 (091e20e, 2023-11-25, custom)"
   width="12"
   height="17"
   xmlns:inkscape="http://www.inkscape.org/namespaces/inkscape"
   xmlns:sodipodi="http://sodipodi.sourceforge.net/DTD/sodipodi-0.dtd"
   xmlns="http://www.w3.org/2000/svg"
   xmlns:svg="http://www.w3.org/2000/svg">
  <defs
     id="defs1" />
  <sodipodi:namedview
     id="namedview1"
     pagecolor="#505050"
     bordercolor="#eeeeee"
     borderopacity="1"
     inkscape:showpageshadow="0"
     inkscape:pageopacity="0"
     inkscape:pagecheckerboard="0"
     inkscape:deskcolor="#505050"
     inkscape:zoom="33.875"
     inkscape:cx="6.0221402"
     inkscape:cy="7.9852399"
     inkscape:window-width="2560"
     inkscape:window-height="1369"
     inkscape:window-x="-8"
     inkscape:window-y="-8"
     inkscape:window-maximized="1"
     inkscape:current-layer="svg1" />
  <path
     d="m 8,12 v 5 H 4 V 14 H 3 A 3,3 0 0 1 0,11 V 8 A 1,1 0 0 1 1,7 1,1 0 0 1 2,8 v 3 c 0,0.56 0.45,1 1,1 H 4 V 2 A 2,2 0 0 1 6,0 2,2 0 0 1 8,2 v 8 H 9 A 1,1 0 0 0 10,9 V 7 a 1,1 0 0 1 1,-1 1,1 0 0 1 1,1 v 2 a 3,3 0 0 1 -3,3 z"
     style="fill:#62c441;fill-opacity:1"
     id="path1" />
</svg>
