<?xml version="1.0" encoding="UTF-8" standalone="no"?>
<svg
   viewBox="0 0 18 20"
   version="1.1"
   id="svg1"
   sodipodi:docname="flower-tulip.svg"
   inkscape:export-filename="flower-tulip.png"
   inkscape:export-xdpi="256"
   inkscape:export-ydpi="256"
   inkscape:version="1.3.2 (091e20e, 2023-11-25, custom)"
   width="18"
   height="20"
   xmlns:inkscape="http://www.inkscape.org/namespaces/inkscape"
   xmlns:sodipodi="http://sodipodi.sourceforge.net/DTD/sodipodi-0.dtd"
   xmlns="http://www.w3.org/2000/svg"
   xmlns:svg="http://www.w3.org/2000/svg">
  <defs
     id="defs1" />
  <sodipodi:namedview
     id="namedview1"
     pagecolor="#505050"
     bordercolor="#eeeeee"
     borderopacity="1"
     inkscape:showpageshadow="0"
     inkscape:pageopacity="0"
     inkscape:pagecheckerboard="0"
     inkscape:deskcolor="#505050"
     inkscape:zoom="33.875"
     inkscape:cx="9.00369"
     inkscape:cy="9.9926199"
     inkscape:window-width="2560"
     inkscape:window-height="1369"
     inkscape:window-x="-8"
     inkscape:window-y="-8"
     inkscape:window-maximized="1"
     inkscape:current-layer="svg1" />
  <path
     d="m 0,11 a 9,9 0 0 0 9,9 9,9 0 0 0 -9,-9 m 9,9 a 9,9 0 0 0 9,-9 9,9 0 0 0 -9,9 M 15,1 V 6 A 6,6 0 0 1 9,12 6,6 0 0 1 3,6 V 1 c 0.74,0 1.47,0.12 2.16,0.39 0.55,0.23 1.04,0.57 1.45,1 L 9,0 11.39,2.39 c 0.41,-0.43 0.9,-0.77 1.45,-1 C 13.53,1.12 14.26,1 15,1 Z"
     style="fill:#62c441;fill-opacity:1"
     id="path1" />
</svg>
