<?xml version="1.0" encoding="UTF-8" standalone="no"?>
<svg
   viewBox="0 0 20 16"
   version="1.1"
   id="svg1"
   sodipodi:docname="grass.svg"
   inkscape:export-filename="grass.png"
   inkscape:export-xdpi="256"
   inkscape:export-ydpi="256"
   inkscape:version="1.3.2 (091e20e, 2023-11-25, custom)"
   width="20"
   height="16"
   xmlns:inkscape="http://www.inkscape.org/namespaces/inkscape"
   xmlns:sodipodi="http://sodipodi.sourceforge.net/DTD/sodipodi-0.dtd"
   xmlns="http://www.w3.org/2000/svg"
   xmlns:svg="http://www.w3.org/2000/svg">
  <defs
     id="defs1" />
  <sodipodi:namedview
     id="namedview1"
     pagecolor="#505050"
     bordercolor="#eeeeee"
     borderopacity="1"
     inkscape:showpageshadow="0"
     inkscape:pageopacity="0"
     inkscape:pagecheckerboard="0"
     inkscape:deskcolor="#505050"
     inkscape:zoom="33.875"
     inkscape:cx="10.00738"
     inkscape:cy="7.9852399"
     inkscape:window-width="1920"
     inkscape:window-height="1009"
     inkscape:window-x="2552"
     inkscape:window-y="360"
     inkscape:window-maximized="1"
     inkscape:current-layer="svg1" />
  <path
     d="M 10,16 H 0 V 14 H 5.75 C 5,11.19 2.81,9 0,8.26 0.64,8.1 1.31,8 2,8 c 4.42,0 8,3.58 8,8 M 20,8.26 C 19.36,8.1 18.69,8 18,8 c -2.93,0 -5.5,1.58 -6.88,3.93 0.29,0.66 0.53,1.35 0.67,2.07 0.13,0.65 0.21,1.32 0.21,2 h 8 V 14 H 14.24 C 15,11.19 17.19,9 20,8.26 M 13.64,7 C 14.42,4.93 15.87,3.18 17.73,2 13.44,2.16 10,5.67 10,10 v 0 C 10.95,8.75 12.2,7.72 13.64,7 M 9.42,4.85 C 8.58,2.66 6.88,0.89 4.7,0 6.14,1.86 7,4.18 7,6.71 7,6.92 6.97,7.12 6.96,7.32 7.39,7.56 7.79,7.84 8.18,8.14 8.39,6.96 8.83,5.85 9.42,4.85 Z"
     style="fill:#62c441;fill-opacity:1"
     id="path1" />
</svg>
