<?xml version="1.0" encoding="UTF-8" standalone="no"?>
<svg
   viewBox="0 0 20 20"
   version="1.1"
   id="svg1"
   sodipodi:docname="mushroom.svg"
   inkscape:export-filename="mushroom.png"
   inkscape:export-xdpi="256"
   inkscape:export-ydpi="256"
   inkscape:version="1.3.2 (091e20e, 2023-11-25, custom)"
   width="20"
   height="20"
   xmlns:inkscape="http://www.inkscape.org/namespaces/inkscape"
   xmlns:sodipodi="http://sodipodi.sourceforge.net/DTD/sodipodi-0.dtd"
   xmlns="http://www.w3.org/2000/svg"
   xmlns:svg="http://www.w3.org/2000/svg">
  <defs
     id="defs1" />
  <sodipodi:namedview
     id="namedview1"
     pagecolor="#505050"
     bordercolor="#eeeeee"
     borderopacity="1"
     inkscape:showpageshadow="0"
     inkscape:pageopacity="0"
     inkscape:pagecheckerboard="0"
     inkscape:deskcolor="#505050"
     inkscape:zoom="33.875"
     inkscape:cx="10.00738"
     inkscape:cy="9.9926199"
     inkscape:window-width="1920"
     inkscape:window-height="1009"
     inkscape:window-x="2552"
     inkscape:window-y="360"
     inkscape:window-maximized="1"
     inkscape:current-layer="svg1" />
  <path
     d="m 10,0 a 10,10 0 0 1 10,10 2,2 0 0 1 -2,2 H 2 A 2,2 0 0 1 0,10 10,10 0 0 1 10,0 m 0,6 A 2,2 0 0 0 12,4 2,2 0 0 0 10,2 2,2 0 0 0 8,4 2,2 0 0 0 10,6 m 5,4 a 2,2 0 0 0 2,-2 2,2 0 0 0 -2,-2 2,2 0 0 0 -2,2 2,2 0 0 0 2,2 M 5,10 A 2,2 0 0 0 7,8 2,2 0 0 0 5,6 2,2 0 0 0 3,8 2,2 0 0 0 5,10 m 8,3 1.27,4.45 0.08,0.55 c 0,1.1 -0.9,2 -2,2 h -4.7 a 2,2 0 0 1 -2,-2 L 5.73,17.45 7,13 Z"
     style="fill:#62c441;fill-opacity:1"
     id="path1" />
</svg>
