<?xml version="1.0" encoding="UTF-8" standalone="no"?>
<svg
   viewBox="0 0 20 18.060966"
   version="1.1"
   id="svg1"
   sodipodi:docname="sprout.svg"
   inkscape:export-filename="sprout.png"
   inkscape:export-xdpi="256"
   inkscape:export-ydpi="256"
   inkscape:version="1.3.2 (091e20e, 2023-11-25, custom)"
   width="20"
   height="18.060966"
   xmlns:inkscape="http://www.inkscape.org/namespaces/inkscape"
   xmlns:sodipodi="http://sodipodi.sourceforge.net/DTD/sodipodi-0.dtd"
   xmlns="http://www.w3.org/2000/svg"
   xmlns:svg="http://www.w3.org/2000/svg">
  <defs
     id="defs1" />
  <sodipodi:namedview
     id="namedview1"
     pagecolor="#505050"
     bordercolor="#eeeeee"
     borderopacity="1"
     inkscape:showpageshadow="0"
     inkscape:pageopacity="0"
     inkscape:pagecheckerboard="0"
     inkscape:deskcolor="#505050"
     inkscape:zoom="33.875"
     inkscape:cx="10.00738"
     inkscape:cy="8.0738007"
     inkscape:window-width="1920"
     inkscape:window-height="1009"
     inkscape:window-x="2552"
     inkscape:window-y="360"
     inkscape:window-maximized="1"
     inkscape:current-layer="svg1" />
  <path
     d="m 0,18.060966 v -2 c 0,0 5,-2 10,-2 5,0 10,2 10,2 v 2 H 0 M 9.3,5.1609663 c -1.2,-3.9 -7.3,-3 -7.3,-3 0,0 0.2,7.8 5.9,6.6 -0.4,-2.9 -1.9,-3.7 -1.9,-3.7 2.8,0 3,3.4 3,3.4 v 4.5999997 c 0.3,0 0.7,0 1,0 0.3,0 0.7,0 1,0 V 8.8609663 c 0,0 0,-3.9 3,-4.9 0,0 -2,3 -2,5 7,0.7 7,-8.89999998 7,-8.89999998 0,0 -8.9,-1 -9.7,5.09999998 z"
     style="fill:#62c441;fill-opacity:1"
     id="path1" />
</svg>
