<?xml version="1.0" encoding="UTF-8" standalone="no"?>
<svg
   viewBox="0 0 17 20"
   version="1.1"
   id="svg1"
   sodipodi:docname="palm-tree.svg"
   inkscape:export-filename="palm-tree.png"
   inkscape:export-xdpi="256"
   inkscape:export-ydpi="256"
   inkscape:version="1.3.2 (091e20e, 2023-11-25, custom)"
   width="17"
   height="20"
   xmlns:inkscape="http://www.inkscape.org/namespaces/inkscape"
   xmlns:sodipodi="http://sodipodi.sourceforge.net/DTD/sodipodi-0.dtd"
   xmlns="http://www.w3.org/2000/svg"
   xmlns:svg="http://www.w3.org/2000/svg">
  <defs
     id="defs1" />
  <sodipodi:namedview
     id="namedview1"
     pagecolor="#505050"
     bordercolor="#eeeeee"
     borderopacity="1"
     inkscape:showpageshadow="0"
     inkscape:pageopacity="0"
     inkscape:pagecheckerboard="0"
     inkscape:deskcolor="#505050"
     inkscape:zoom="33.875"
     inkscape:cx="8.501845"
     inkscape:cy="9.9926199"
     inkscape:window-width="1920"
     inkscape:window-height="1009"
     inkscape:window-x="2552"
     inkscape:window-y="360"
     inkscape:window-maximized="1"
     inkscape:current-layer="svg1" />
  <path
     d="m 8.5,7 c 1.59,7.61 -2,13 -2,13 h 3 c 1.88,-5.8 1,-9.91 0.5,-12 M 12.16,5.16 C 12.33,5.37 12.5,5.59 12.63,5.82 14.34,8.53 14,11.95 12,14.26 12.84,12.21 12.72,9.79 11.45,7.77 11.37,7.64 11.28,7.53 11.2,7.41 10.61,6.58 9.86,5.92 9.04,5.43 6.16,6.35 4.08,9.04 4.08,12.22 c 0,0.74 0.11,1.45 0.31,2.11 C 3.55,13.16 3.06,11.73 3.06,10.19 3.06,7.84 4.2,5.76 5.95,4.46 4.5,4.35 2.96,4.67 1.62,5.5 1,5.91 0.46,6.38 0,6.91 0.55,5.58 1.5,4.39 2.8,3.57 4.3,2.63 6,2.32 7.64,2.56 7.23,2 6.73,1.47 6.13,1 5.55,0.58 4.92,0.24 4.26,0 5.7,0.04 7.14,0.5 8.37,1.43 9,1.9 9.5,2.47 9.9,3.07 c 0.1,0 0.19,-0.01 0.29,-0.01 3.2,0 5.91,2.11 6.81,5.02 C 15.88,6.5 14.15,5.43 12.16,5.16 Z"
     style="fill:#62c441;fill-opacity:1"
     id="path1" />
</svg>
